<svg xmlns="http://www.w3.org/2000/svg" viewBox="0 0 512 512" width="512" height="512">
  <defs>
    <linearGradient id="appleGreen" x1="0%" y1="0%" x2="0%" y2="100%">
      <stop offset="0%" style="stop-color:#34C759;stop-opacity:1" />
      <stop offset="100%" style="stop-color:#28A745;stop-opacity:1" />
    </linearGradient>
  </defs>
  <rect width="512" height="512" rx="112" fill="url(#appleGreen)"/>

  <g fill="#FFFFFF" transform="translate(128, 110)">
    <path d="M128,160 C128,80 60,40 20,40 C20,100 60,160 128,160 Z" />
    <path d="M128,160 C128,80 196,40 236,40 C236,100 196,160 128,160 Z" />
    <path d="M118,150 L118,260 C118,270 138,270 138,260 L138,150 Z" />
    
    <path d="M88,0 C110,-15 146,-15 168,0 C174,4 180,-2 176,-8 C150,-28 106,-28 80,-8 C76,-2 82,4 88,0 Z" opacity="0.7"/>
    <path d="M58,-30 C96,-60 160,-60 198,-30 C204,-26 210,-32 206,-38 C162,-72 94,-72 50,-38 C46,-32 52,-26 58,-30 Z" opacity="0.9"/>
    <circle cx="128" cy="25" r="10"/>
  </g>
</svg>
